<svg xmlns="http://www.w3.org/2000/svg" xmlns:xlink="http://www.w3.org/1999/xlink" version="1.1" width="400" height="300" viewBox="0 0 400 300" xml:space="preserve">
<desc>Created with Fabric.js 3.5.0</desc>
<defs>
</defs>
<rect x="0" y="0" width="100%" height="100%" fill="#333333"/>
<g transform="matrix(1 0 0 1 205.5049 170.34)" style="" id="937258">
		
<path xml:space="preserve" font-family="Federant" font-size="270" font-style="normal" font-weight="normal" style="stroke: none; stroke-width: 1; stroke-dasharray: none; stroke-linecap: butt; stroke-dashoffset: 0; stroke-linejoin: miter; stroke-miterlimit: 4; is-custom-font: none; font-file-url: none; fill: rgb(255,255,255); fill-rule: nonzero; opacity: 1; white-space: pre;" d="M-23.09-92.57Q-22.00-95.54-22.00-98.78L-22.00-98.78Q-22.00-102.83-23.63-106.07L-23.63-106.07Q-39.82-107.96-55.48-107.96L-55.48-107.96Q-78.44-107.96-96.80-106.34L-96.80-106.34Q-117.86-104.45-133.52-96.89L-133.52-96.89Q-141.62-92.84-146.07-86.09Q-150.53-79.34-150.53-70.70L-150.53-70.70L-150.53 51.88Q-150.53 66.73-146.07 74.56Q-141.62 82.39-131.49 85.63Q-121.37 88.87-102.74 88.87L-102.74 88.87Q-55.22 88.87-21.19 78.34L-21.19 78.34Q-19.84 74.83-19.84 72.40L-19.84 72.40Q-19.84 69.97-21.47 64.84L-21.47 64.84Q-30.91 67.54-52.38 70.24Q-73.84 72.94-92.21 72.94L-92.21 72.94Q-102.74 72.94-108.14 70.78Q-113.54 68.62-115.83 63.35Q-118.13 58.09-118.13 48.10L-118.13 48.10L-118.13-69.35Q-118.40-85.55-104.63-89.33L-104.63-89.33Q-87.08-94.19-52.52-94.19L-52.52-94.19Q-31.19-94.19-23.09-92.57L-23.09-92.57ZM150.53-71.24Q150.53-85.55 146.34-93.38Q142.16-101.21 132.70-104.45Q123.25-107.69 106.24-107.69L106.24-107.69Q47.92-107.69 3.37-95.00L3.37-95.00Q2.29-92.57 2.29-88.52L2.29-88.52Q2.29-84.47 3.91-81.50L3.91-81.50Q15.79-85.55 42.66-89.47Q69.52-93.38 92.20-93.38L92.20-93.38Q102.47-93.38 108-91.09Q113.53-88.79 115.83-83.26Q118.13-77.72 118.13-67.46L118.13-67.46L118.13 49.72Q118.13 64.30 106.52 69.16L106.52 69.16Q94.91 74.02 60.88 74.02L60.88 74.02Q48.46 74.02 44.14 70.51Q39.82 67.00 39.82 56.47L39.82 56.47L39.82-70.97Q39.82-75.83 34.96-75.83L34.96-75.83Q21.73-75.83 12.01-72.59L12.01-72.59Q7.42-70.97 7.42-66.92L7.42-66.92L7.42 73.21Q7.42 80.23 9.99 83.33Q12.55 86.44 18.36 87.38Q24.16 88.33 36.58 88.33L36.58 88.33Q56.56 88.33 63.85 88.06L63.85 88.06Q94.09 87.52 109.22 84.55L109.22 84.55Q131.35 80.77 139.72 73.75L139.72 73.75Q144.85 69.70 147.69 63.89Q150.53 58.09 150.53 51.07L150.53 51.07L150.53-71.24Z"/></g>
</svg>